# cube.obj
#

g cube

v  0.0  0.0  0.0
v  0.0  0.0  1.0
v  0.0  1.0  0.0
v  0.0  1.0  1.0
v  1.0  0.0  0.0
v  1.0  0.0  1.0
v  1.0  1.0  0.0
v  1.0  1.0  1.0

vn  0.0  0.0  1.0
vn  0.0  0.0 -1.0
vn  0.0  1.0  0.0
vn  0.0 -1.0  0.0
vn  1.0  0.0  0.0
vn -1.0  0.0  0.0

f  1/12421/2  7/12/2  5/12/2
f  1/12421/2  3/12/2  7/12/2
f  1/12421/6  4/12/6  3/12/6
f  1/12421/6  2/12/6  4/12/6
f  3/12421/3  8/12/3  7/12/3
f  3/12421/3  4/12/3  8/12/3
f  5/12421/5  7/12/5  8/12/5
f  5/12421/5  8/12/5  6/12/5
f  1/12421/4  5/12/4  6/12/4
f  1/12421/4  6/12/4  2/12/4
f  2/12421/1  6/12/1  8/12/1
f  2/24211/1  8/21/1  4/21/1